# xmcd
#
# Track frame offsets:
#  150
#  17734
#  36128
#  53823
#  71641
#  89034
#  108091
#  124550
#  141921
#  143194
#  158516
#  161539
#  187540
#  209341
#
# Disc length: 3053 seconds
#
# Revision: 0
# Processed by: cddbd v1.5.1PL2 Copyright (c) Steve Scherf et al.
# Submitted via: Collectorz.com_Music_Collector 6.9
#
DISCID=b70beb0e
DTITLE=Burnside Exploration - The Record
DYEAR=2006
DGENRE=Blues
TTITLE0=Bitch You Lie
TTITLE1=You Don't Love Me
TTITLE2=Poor Man's Blues
TTITLE3=One Cold and Lonely Night
TTITLE4=Long Harired Dony
TTITLE5=Rambler
TTITLE6=All By Myself
TTITLE7=Boogie
TTITLE8=Damned If Ma Voice-Talk
TTITLE9=I Don't Want To Live
TTITLE10=All Night Long Intro.
TTITLE11=All Night Long
TTITLE12=Intro 8
TTITLE13=Knockin On Heaven's Door
EXTD=
EXTT0=
EXTT1=
EXTT2=
EXTT3=
EXTT4=
EXTT5=
EXTT6=
EXTT7=
EXTT8=
EXTT9=
EXTT10=
EXTT11=
EXTT12=
EXTT13=
PLAYORDER=
